<svg data-v-0dd9719b="" version="1.0" xmlns="http://www.w3.org/2000/svg" xmlns:xlink="http://www.w3.org/1999/xlink" width="100%" height="100%" viewBox="0 0 340.000000 250.000000" preserveAspectRatio="xMidYMid meet" color-interpolation-filters="sRGB" style="margin: auto;"> <rect data-v-0dd9719b="" x="0" y="0" width="100%" height="100%" fill="#fff" fill-opacity="1" class="background"></rect> <rect data-v-0dd9719b="" x="0" y="0" width="100%" height="100%" fill="url(#watermark)" fill-opacity="1" class="watermarklayer"></rect> <g data-v-0dd9719b="" fill="#000000" class="icon-text-wrapper icon-svg-group iconsvg" transform="translate(62.224998474121094,97.53456115722656)"><g class="iconsvg-imagesvg" transform="translate(0,0)"><g><rect fill="#000000" fill-opacity="0" stroke-width="2" x="0" y="0" width="66" height="54.93087864437249" class="image-rect"></rect> <svg x="0" y="0" width="66" height="54.93087864437249" filtersec="colorsb5359149481" class="image-svg-svg primary" style="overflow: visible;"><svg xmlns="http://www.w3.org/2000/svg" viewBox="0 0 30.229999542236328 25.15999984741211"><g><g><g fill-rule="evenodd"><path fill="#FF0000" d="M18.87 0L11.4.05l10.94 12.33 7.89-.01L18.87 0z"></path><path d="M18.71.05h.12l-.06.07-.06-.07zm-3.89 4.52l-6.93 7.81H0L11.05.33l3.76 4.24z" fill="#FF0000"></path><path fill="#000000" d="M11.35 25.16l7.48-.06L7.89 12.78H0l11.35 12.38z"></path><path d="M11.52 25.1h-.12l.06-.07.06.07zm3.89-4.52l6.93-7.81h7.89l-11.05 12-3.76-4.24z" fill="#000000"></path></g></g></g></svg></svg> <!----></g></g> <g transform="translate(68,2.1091880798339844)"><g data-gra="path-name" fill-rule="" class="tp-name iconsvg-namesvg" transform="translate(0,0)"><g transform="scale(1)"><g><path d="M35.26-17.02L35.26-13.83 32.34-13.83 32.34-9.01 22.69-9.01 22.69-7.37 31.84-7.37 31.84 3.19 10.11 3.19 10.11-7.37 18.32-7.37 18.32-9.01 9.92-9.01 9.92-12.31 18.32-12.31 18.32-13.83 9.04-13.83Q9.01-10.64 8.76-8.23 8.51-5.81 8.02-3.76 7.52-1.71 6.76 0.15 6 2.01 4.94 4.07L4.94 4.07 0.61 1.98Q1.6 0.11 2.36-1.69 3.12-3.5 3.63-5.45 4.14-7.41 4.41-9.63 4.67-11.86 4.67-14.59L4.67-14.59 4.67-27.59 17.48-27.59 16.8-30.32 21.74-30.55 22.38-27.59 34.28-27.59 34.28-23.71 22.69-23.71 22.69-21.93 32.34-21.93 32.34-17.02 35.26-17.02ZM9.04-17.02L18.32-17.02 18.32-18.51 10.11-18.51 10.11-21.93 18.32-21.93 18.32-23.71 9.04-23.71 9.04-17.02ZM28.01-18.51L22.69-18.51 22.69-17.02 28.01-17.02 28.01-18.51ZM28.01-12.31L28.01-13.83 22.69-13.83 22.69-12.31 28.01-12.31ZM27.4-0.57L27.4-3.8 14.67-3.8 14.67-0.57 27.4-0.57ZM65.82-23.98L70.49-23.79 70.49 2.47 41.72 2.47 41.72-23.98 46.47-23.79 46.47-2.39 53.85-2.39 53.85-29.87 58.41-29.68 58.41-2.39 65.82-2.39 65.82-23.98ZM81.97-30.21L86.07-29.37Q85.61-27.59 85.16-26.01 84.7-24.43 84.17-22.91L84.17-22.91 84.17 3.57 79.95 3.57 79.95-13.22Q79.61-12.54 79.25-11.88 78.89-11.21 78.47-10.49L78.47-10.49 75.24-13.68Q76.08-15.09 77.08-17.18 78.09-19.27 79.06-21.56 80.03-23.86 80.81-26.14 81.59-28.42 81.97-30.21L81.97-30.21ZM92.95-8.85L93.94-4.26Q93.71-4.07 93.18-3.69 92.64-3.31 92.02-2.83 91.39-2.36 90.71-1.84 90.02-1.33 89.45-0.91L89.45-0.91Q89.03-0.57 88.63-0.25 88.24 0.08 87.82 0.38L87.82 0.38 85.35-3.34Q86.22-3.88 86.39-4.48 86.56-5.09 86.56-6.04L86.56-6.04 86.56-29.37 90.71-29.18 90.71-21.51 93.21-21.51 93.21-17.02 90.71-17.02 90.71-7.03Q91.2-7.45 91.83-7.96 92.45-8.47 92.95-8.85L92.95-8.85ZM108.6-4.71L105.03-4.71Q105.83-4.03 106.63-3.29 107.43-2.55 108.17-1.86 108.91-1.18 109.53-0.57 110.16 0.04 110.58 0.49L110.58 0.49 107.88 3.84Q107.31 3.15 106.55 2.34 105.79 1.52 104.94 0.68 104.08-0.15 103.21-0.99 102.33-1.82 101.54-2.55L101.54-2.55Q100.55-0.72 98.76 0.87 96.98 2.47 94.16 4.18L94.16 4.18 91.88 0.27Q94.51-1.06 96.04-2.28 97.58-3.5 98.38-4.86 99.18-6.23 99.39-7.87 99.6-9.5 99.6-11.67L99.6-11.67 99.6-16.83 103.17-16.64 103.17-10.72Q103.17-9.58 103.11-8.57 103.06-7.56 102.9-6.65L102.9-6.65 104.84-4.9 104.84-18.24 97.93-18.24 97.93-4.75 94.24-4.75 94.24-22.12 98.88-22.12Q98.99-22.84 99.12-23.56 99.26-24.28 99.41-24.97L99.41-24.97 94.16-24.97 94.16-28.96 109.44-28.96 109.44-24.97 103.59-24.97Q103.44-24.32 103.28-23.58 103.13-22.84 102.98-22.12L102.98-22.12 108.6-22.12 108.6-4.71ZM122.59-24.28L122.59-24.28Q121.22-21.74 119.45-19.47 117.69-17.21 115.6-15.12L115.6-15.12 112.9-18.13Q114.04-19.27 115.23-20.8 116.43-22.34 117.51-24.04 118.6-25.73 119.47-27.47 120.35-29.22 120.88-30.74L120.88-30.74 124.91-29.6 124.34-28.01Q125.02-27.4 125.74-26.66 126.46-25.92 127.17-25.12 127.87-24.32 128.53-23.52 129.2-22.72 129.77-22L129.77-22 134.25-22 134.94-24.66 128.48-24.66 128.48-29.03 146.98-29.03 146.98-24.66 139.73-24.66Q139.57-24.02 139.4-23.33 139.23-22.65 139.04-22L139.04-22 145.88-22 145.88-5.24 141.4-5.24 141.4-18.09 133.84-18.09 133.84-5.21 129.43-5.21 129.43-20.44 127.38-18.16Q126.92-18.81 126.33-19.59 125.74-20.37 125.11-21.18 124.49-22 123.84-22.8 123.2-23.6 122.59-24.28ZM124.34-2.85L124.34-2.85Q124.98-2.2 125.57-1.63 126.16-1.06 126.58-0.57L126.58-0.57 124.03 3.31Q123.12 2.36 122.04 1.2 120.95 0.04 119.79-1.08 118.64-2.2 117.51-3.21 116.39-4.22 115.44-4.94L115.44-4.94 118.03-8.13Q118.79-7.6 119.68-6.88 120.57-6.16 121.49-5.36L121.49-5.36Q122.4-6.54 123.27-7.9 124.15-9.27 124.45-10.15L124.45-10.15 115.48-10.15 115.48-14.25 122.59-14.25Q122.25-14.86 121.81-15.52 121.37-16.19 120.93-16.78 120.5-17.37 120.1-17.88 119.7-18.39 119.36-18.73L119.36-18.73 122.25-21.09Q123.16-20.18 124.16-18.81 125.17-17.44 125.89-16.11L125.89-16.11 123.54-14.25 128.59-14.25 128.59-9.77Q127.72-7.9 126.62-6.12 125.51-4.33 124.34-2.85ZM139.31-6.27L139.31-6.27Q140.22-5.7 141.42-4.88 142.61-4.07 143.83-3.17 145.05-2.28 146.19-1.39 147.33-0.49 148.16 0.23L148.16 0.23 145.31 4.29Q144.63 3.53 143.68 2.66 142.73 1.79 141.68 0.89 140.64 0 139.59-0.82 138.55-1.63 137.67-2.28L137.67-2.28Q136.46-0.46 134.29 1.18 132.13 2.81 128.63 4.6L128.63 4.6 125.82 0.72Q128.97-0.65 130.87-1.88 132.77-3.12 133.78-4.5 134.79-5.89 135.09-7.64 135.39-9.39 135.39-11.82L135.39-11.82 135.39-16.99 139.69-16.83 139.69-10.79Q139.69-9.54 139.59-8.4 139.5-7.26 139.31-6.27Z" transform="translate(-0.6100000143051147, 30.739999771118164)"></path></g> <!----> <!----> <!----> <!----> <!----> <!----> <!----></g></g> <g data-gra="path-slogan" fill-rule="" class="tp-slogan iconsvg-slogansvg" fill="#FF0000" transform="translate(5,40.34000015258789)"><rect x="0" height="1" y="4.185000419616699" width="2.19000244140625"></rect> <rect height="1" y="4.185000419616699" width="2.19000244140625" x="135.36000061035156"></rect> <g transform="translate(5.19000244140625,0)"><g transform="scale(1)"><path d="M3.09-7.59L0.19-7.59L0.19-8.58L7.13-8.58L7.13-7.59L4.22-7.59L4.22 0L3.09 0L3.09-7.59ZM13.83 0L12.98-2.48L9.52-2.48L8.63 0L7.45 0L10.69-8.58L12-8.58L15.09 0L13.83 0ZM11.25-7.31L9.89-3.52L12.56-3.52L11.30-7.31L11.25-7.31ZM17.53-8.58L21.84-1.64L21.84-8.58L22.97-8.58L22.97 0L21.66 0L17.30-6.94L17.25-6.94L17.25 0L16.13 0L16.13-8.58L17.53-8.58ZM31.17-3.61L28.55-3.61L28.55-4.59L32.30-4.59L32.30 0L31.55 0L31.27-1.08Q30.28 0.09 28.45 0.14L28.45 0.14Q26.72 0.14 25.78-0.75L25.78-0.75Q24.38-2.06 24.42-4.36L24.42-4.36Q24.75-8.63 28.50-8.81L28.50-8.81Q31.69-8.63 32.16-6L32.16-6L31.03-6Q30.56-7.78 28.45-7.83L28.45-7.83Q25.78-7.64 25.64-4.31L25.64-4.31Q25.64-0.75 28.50-0.75L28.50-0.75Q29.53-0.75 30.28-1.31L30.28-1.31Q31.22-2.06 31.17-3.61L31.17-3.61ZM40.36-6.09L40.36-6.09L39.28-6.09Q39.19-7.73 37.13-7.83L37.13-7.83Q35.20-7.78 35.20-6.33L35.20-6.33Q35.20-5.39 36.23-5.25L36.23-5.25L38.67-4.69Q40.59-4.22 40.59-2.34L40.59-2.34Q40.55 0.05 37.22 0.14L37.22 0.14Q35.39 0.14 34.64-0.61L34.64-0.61Q33.70-1.31 33.75-2.77L33.75-2.77L34.88-2.77Q34.92-0.80 37.22-0.75L37.22-0.75Q39.47-0.80 39.52-2.20L39.52-2.20Q39.70-3.38 37.64-3.75L37.64-3.75L35.86-4.13Q34.03-4.64 34.03-6.19L34.03-6.19Q34.17-8.72 37.03-8.81L37.03-8.81Q40.27-8.81 40.36-6.09ZM43.22-5.06L47.72-5.06L47.72-8.58L48.89-8.58L48.89 0L47.72 0L47.72-3.98L43.22-3.98L43.22 0L42.05 0L42.05-8.58L43.22-8.58L43.22-5.06ZM56.34 0L55.50-2.48L52.03-2.48L51.14 0L49.97 0L53.20-8.58L54.52-8.58L57.61 0L56.34 0ZM53.77-7.31L52.41-3.52L55.08-3.52L53.81-7.31L53.77-7.31ZM60.05-8.58L64.36-1.64L64.36-8.58L65.48-8.58L65.48 0L64.17 0L59.81-6.94L59.77-6.94L59.77 0L58.64 0L58.64-8.58L60.05-8.58ZM75.61-1.08L74.72-1.78L75.33-2.48L76.41-1.64Q77.39-2.63 77.39-4.27L77.39-4.27Q77.20-7.64 74.39-7.83L74.39-7.83Q71.53-7.69 71.39-4.27L71.39-4.27Q71.53-0.94 74.39-0.80L74.39-0.80Q75.09-0.80 75.61-1.08L75.61-1.08ZM77.34-0.94L78.47-0.05L77.91 0.56L76.59-0.33Q75.75 0.14 74.39 0.14L74.39 0.14Q70.45 0 70.17-4.27L70.17-4.27Q70.41-8.72 74.39-8.81L74.39-8.81Q78.28-8.67 78.56-4.27L78.56-4.27Q78.52-2.20 77.34-0.94L77.34-0.94ZM80.11-8.58L81.28-8.58L81.28 0L80.11 0L80.11-8.58ZM84.66-8.58L88.97-1.64L88.97-8.58L90.09-8.58L90.09 0L88.78 0L84.42-6.94L84.38-6.94L84.38 0L83.25 0L83.25-8.58L84.66-8.58ZM98.30-3.61L95.67-3.61L95.67-4.59L99.42-4.59L99.42 0L98.67 0L98.39-1.08Q97.41 0.09 95.58 0.14L95.58 0.14Q93.84 0.14 92.91-0.75L92.91-0.75Q91.50-2.06 91.55-4.36L91.55-4.36Q91.88-8.63 95.63-8.81L95.63-8.81Q98.81-8.63 99.28-6L99.28-6L98.16-6Q97.69-7.78 95.58-7.83L95.58-7.83Q92.91-7.64 92.77-4.31L92.77-4.31Q92.77-0.75 95.63-0.75L95.63-0.75Q96.66-0.75 97.41-1.31L97.41-1.31Q98.34-2.06 98.30-3.61L98.30-3.61ZM101.20-8.58L102.38-8.58L102.38-1.03L106.73-1.03L106.73 0L101.20 0L101.20-8.58ZM108.05-8.58L109.22-8.58L109.22 0L108.05 0L108.05-8.58ZM112.59-8.58L116.91-1.64L116.91-8.58L118.03-8.58L118.03 0L116.72 0L112.36-6.94L112.31-6.94L112.31 0L111.19 0L111.19-8.58L112.59-8.58ZM126.23-3.61L123.61-3.61L123.61-4.59L127.36-4.59L127.36 0L126.61 0L126.33-1.08Q125.34 0.09 123.52 0.14L123.52 0.14Q121.78 0.14 120.84-0.75L120.84-0.75Q119.44-2.06 119.48-4.36L119.48-4.36Q119.81-8.63 123.56-8.81L123.56-8.81Q126.75-8.63 127.22-6L127.22-6L126.09-6Q125.63-7.78 123.52-7.83L123.52-7.83Q120.84-7.64 120.70-4.31L120.70-4.31Q120.70-0.75 123.56-0.75L123.56-0.75Q124.59-0.75 125.34-1.31L125.34-1.31Q126.28-2.06 126.23-3.61L126.23-3.61Z" transform="translate(-0.1875, 8.8125)"></path></g></g></g></g></g><defs v-gra="od"></defs></svg>